<?xml version="1.0" encoding="utf-8"?>
<!-- Generator: Adobe Illustrator 16.0.0, SVG Export Plug-In . SVG Version: 6.00 Build 0)  -->
<!DOCTYPE svg PUBLIC "-//W3C//DTD SVG 1.1//EN" "http://www.w3.org/Graphics/SVG/1.1/DTD/svg11.dtd">
<svg version="1.1" id="Layer_1" xmlns="http://www.w3.org/2000/svg" xmlns:xlink="http://www.w3.org/1999/xlink" x="0px" y="0px"
	 width="450.313px" height="81px" viewBox="0 0 450.313 81" style="enable-background:new 0 0 450.313 81;" xml:space="preserve">
<style type="text/css">
<![CDATA[
	.st0{fill:none;stroke:#000000;stroke-width:0.2956;stroke-miterlimit:10;}
	.st1{opacity:0.5;fill:#29ABE2;}
	.st2{fill:none;stroke:#000000;stroke-width:0.1744;stroke-miterlimit:10;}
	.st3{fill:none;stroke:#000000;stroke-width:0.2763;stroke-miterlimit:10;}
	.st4{fill:#F6CA00;}
	.st5{fill:#29ABE2;}
	.st6{fill:none;stroke:#000000;stroke-width:0.2121;stroke-miterlimit:10;}
	.st7{fill:none;stroke:#000000;stroke-width:0.1837;stroke-miterlimit:10;}
	.st8{opacity:0.5;}
	.st9{fill:#FFFFFF;}
	.st10{fill:none;stroke:#000000;stroke-width:0.1353;stroke-miterlimit:10;}
	.st11{fill:none;stroke:#000000;stroke-width:0.3631;stroke-miterlimit:10;}
	.st12{fill:#F6CA00;stroke:#F6CA00;stroke-width:0.4242;stroke-miterlimit:10;}
	.st13{fill:none;stroke:#000000;stroke-width:0.4242;stroke-miterlimit:10;}
	.st14{fill:#44433E;}
	.st15{fill:none;stroke:#000000;stroke-width:0.3788;stroke-miterlimit:10;}
	.st16{fill:none;stroke:#000000;stroke-width:0.1239;stroke-miterlimit:10;}
]]>
</style>
<g>
	<polygon points="8.848,45.767 4.27,47.888 9.173,49.923 	"/>
	<g>
		<path class="st1" d="M42.01,30.581c-0.949,3.771-3.934,6.685-6.664,6.509c-2.731-0.174-3.549-3.289-2.6-7.058
			c0.949-3.77,3.308-6.767,6.038-6.592C41.516,23.615,42.96,26.812,42.01,30.581z"/>
		<path class="st6" d="M42.01,30.581c-0.949,3.771-3.934,6.685-6.664,6.509c-2.731-0.174-3.549-3.289-2.6-7.058
			c0.949-3.77,3.308-6.767,6.038-6.592C41.516,23.615,42.96,26.812,42.01,30.581z"/>
	</g>
	<g>
		<path d="M50.284,47.845c0-7.917-5.538-14.678-13.349-17.386c4.837,4.434,7.881,10.863,7.881,18.016
			c0,6.112-2.223,11.691-5.882,15.953C45.673,61.329,50.284,55.068,50.284,47.845z"/>
		<path class="st4" d="M36.936,30.458c-2.349-0.814-4.901-1.266-7.572-1.268c5.701,4.424,9.384,11.416,9.384,19.284
			c0,7.126-3.016,13.533-7.816,17.966c2.868-0.191,5.574-0.896,8.004-2.013c3.659-4.262,5.882-9.841,5.882-15.953
			C44.816,41.322,41.772,34.892,36.936,30.458z"/>
		<path d="M11.188,57.106c1.11-2.802,1.727-5.862,1.727-9.07c0-3.299-0.648-6.442-1.82-9.308c-1.698,2.696-2.672,5.804-2.672,9.117
			C8.423,51.217,9.433,54.377,11.188,57.106z"/>
		<path d="M25.771,29.604c5.069,4.441,8.284,10.956,8.284,18.305c0,7.354-3.215,13.902-8.284,18.345
			c1.165,0.18,2.36,0.261,3.582,0.261c0.531,0,1.057-0.032,1.577-0.066c4.801-4.433,7.816-10.708,7.816-17.833
			c0-7.869-3.683-15.152-9.384-19.152c-0.004,0-0.007,0-0.01,0C28.132,29.463,26.937,29.426,25.771,29.604z"/>
		<path d="M20.553,47.841c0,5.363-1.71,10.316-4.601,14.33c1.109,0.824,2.315,1.548,3.603,2.156
			c3.938-4.323,6.352-10.115,6.352-16.486c0-6.365-2.413-12.156-6.352-16.478c-1.287,0.607-2.493,1.331-3.603,2.156
			C18.843,37.531,20.553,42.481,20.553,47.841z"/>
		<path class="st4" d="M15.952,33.519c-1.953,1.453-3.604,3.219-4.857,5.209c1.172,2.866,1.82,6.009,1.82,9.308
			c0,3.208-0.616,6.269-1.727,9.07c1.242,1.932,2.857,3.646,4.764,5.064c2.891-4.014,4.601-8.967,4.601-14.33
			C20.553,42.481,18.843,37.531,15.952,33.519z"/>
		<path class="st4" d="M34.056,47.841c0-7.348-3.215-13.93-8.284-18.372c-2.21,0.34-4.302,0.986-6.217,1.894
			c3.938,4.322,6.352,10.113,6.352,16.478c0,6.371-2.413,12.163-6.352,16.486c1.915,0.906,4.007,1.554,6.217,1.894
			C30.841,61.778,34.056,55.195,34.056,47.841z"/>
	</g>
	<path class="st13" d="M23.901,41.291c0,0,5.359-1.869,9.211-1.401"/>
	<g>
		<g class="st8">
			<path class="st5" d="M33.921,27.9c-1.789-5.937-7.063-9.597-11.778-8.175c-4.716,1.421-5.837,6.577-4.048,12.515
				c1.27,4.213,4.267,7.424,7.157,8.611c1.515-0.425,3.876-0.987,6.19-1.143C34.224,37.242,35.309,32.505,33.921,27.9z"/>
		</g>
		<g>
			<path class="st11" d="M33.921,27.9c-1.789-5.937-7.063-9.597-11.778-8.175c-4.716,1.421-5.837,6.577-4.048,12.515
				c1.27,4.213,4.267,7.424,7.157,8.611c1.515-0.425,3.876-0.987,6.19-1.143C34.224,37.242,35.309,32.505,33.921,27.9z"/>
		</g>
	</g>
	<g>
		<path class="st4" d="M44.697,43.729c0-7.332,5.826-13.281,13.016-13.281c7.19,0,13.018,5.949,13.018,13.281
			c0,7.337-5.827,13.285-13.018,13.285C50.523,57.014,44.697,51.065,44.697,43.729 M60.27,49.463V38.268
			c0-1.243-1.191-2.358-2.413-2.358c-1.217,0-2.26,1.115-2.26,2.358L55.567,49.15c0,1.245,1.086,2.256,2.303,2.256
			c1.222,0,2.399-0.977,2.399-2.225"/>
		<path class="st15" d="M53.508,23.351c0,0-1.1-4.533,2.086-7.108"/>
		<circle class="st15" cx="56.079" cy="15.524" r="1.038"/>
		<path class="st15" d="M62.941,25.878c0,0-0.69-4.143,3.873-5.47"/>
		<circle class="st15" cx="67.862" cy="20.235" r="1.039"/>
		<g>
			<g>
				<path class="st9" d="M64.044,25.896c-2.159-0.158-4.099,0.848-5.036,2.422c-0.37-2.596-2.782-4.714-5.85-4.938
					c-3.477-0.256-6.478,2.017-6.702,5.073c-0.226,3.058,2.412,5.746,5.89,6.001c2.696,0.199,5.106-1.126,6.157-3.157
					c0.427,2.057,2.39,3.703,4.859,3.884c2.914,0.214,5.43-1.691,5.617-4.255C69.168,28.362,66.958,26.111,64.044,25.896z"/>
				<path class="st12" d="M69.256,30.779c-0.004-0.117-0.004-0.23-0.013-0.351l-0.051-0.378c-0.095-0.488-0.242-0.955-0.481-1.379
					c-0.238-0.42-0.519-0.816-0.866-1.146c-0.344-0.329-0.718-0.626-1.129-0.857c-0.197-0.13-0.419-0.217-0.628-0.322
					c-0.222-0.077-0.425-0.205-0.652-0.263c-0.312-0.105-0.634-0.233-1.313-0.233l-0.081-0.002l-0.732,0.044
					c-0.122-0.002-0.245-0.024-0.368-0.014l-0.369,0.081c-0.125,0.007-0.241,0.034-0.362,0.059l-0.361,0.076
					c-0.122,0.022-0.235,0.07-0.352,0.113l-0.348,0.132c-0.119,0.039-0.224,0.104-0.333,0.162l-0.331,0.175
					c-0.114,0.053-0.21,0.136-0.313,0.206l-0.306,0.22c-0.106,0.069-0.186,0.169-0.28,0.253l-0.272,0.264
					c-0.069,0.073-0.129,0.156-0.19,0.237c-0.114-0.585-0.323-1.153-0.621-1.675c-0.368-0.653-0.869-1.232-1.456-1.701
					c-1.174-0.949-2.677-1.455-4.175-1.482c-0.344-0.016-0.748,0.02-1.12,0.062l-0.554,0.095l-0.542,0.148
					c-0.713,0.226-1.39,0.561-1.989,1c-0.599,0.439-1.12,0.984-1.515,1.609c-0.393,0.627-0.667,1.326-0.776,2.053
					c-0.017,0.186-0.05,0.357-0.058,0.553c0,0.179-0.007,0.355-0.001,0.535l0.058,0.554l0.116,0.536
					c0.186,0.709,0.523,1.375,0.97,1.953c0.449,0.577,0.996,1.076,1.605,1.483c0.611,0.405,1.29,0.71,1.999,0.913l0.539,0.129
					c0.181,0.037,0.364,0.057,0.547,0.086c0.386,0.053,0.713,0.065,1.108,0.061c0.749-0.014,1.49-0.157,2.197-0.412
					c0.704-0.257,1.38-0.619,1.964-1.106c0.352-0.294,0.667-0.633,0.947-1.001c0.272,0.66,0.687,1.259,1.194,1.752
					c0.729,0.697,1.642,1.193,2.61,1.439c0.483,0.123,0.984,0.205,1.479,0.2c0.22,0.014,0.491-0.012,0.746-0.028
					c0.254-0.029,0.498-0.064,0.742-0.121c0.489-0.104,0.96-0.285,1.411-0.501c0.44-0.239,0.859-0.521,1.227-0.865
					c0.363-0.347,0.684-0.741,0.926-1.183c0.238-0.443,0.418-0.919,0.495-1.414c0.027-0.121,0.027-0.248,0.042-0.371l0.016-0.186
					C69.263,30.877,69.256,30.845,69.256,30.779z M68.708,30.77c-0.004,0.05-0.005,0.134-0.012,0.156l-0.029,0.16
					c-0.022,0.106-0.03,0.214-0.064,0.317c-0.104,0.418-0.293,0.808-0.514,1.17c-0.228,0.362-0.528,0.672-0.843,0.958
					c-0.652,0.554-1.448,0.928-2.29,1.102c-0.208,0.044-0.426,0.07-0.634,0.092c-0.209,0.007-0.401,0.031-0.645,0.013
					c-0.435-0.006-0.859-0.074-1.275-0.179c-0.416-0.104-0.818-0.261-1.191-0.467c-0.373-0.205-0.727-0.448-1.04-0.735
					c-0.62-0.578-1.081-1.326-1.265-2.145l-0.254-1.125l-0.517,1.02c-0.594,1.176-1.678,2.089-2.929,2.592
					c-0.624,0.256-1.298,0.404-1.975,0.457c-0.674,0.053-1.381,0.01-2.049-0.135c-0.672-0.152-1.322-0.407-1.919-0.759
					c-0.598-0.349-1.138-0.805-1.569-1.351c-0.434-0.541-0.767-1.167-0.955-1.836l-0.108-0.511l-0.048-0.511
					c-0.004-0.175,0.006-0.355,0.008-0.533c0.009-0.161,0.043-0.341,0.067-0.509c0.13-0.68,0.407-1.329,0.813-1.884
					c0.403-0.557,0.916-1.027,1.491-1.396c0.574-0.369,1.21-0.636,1.869-0.8l0.498-0.104l0.504-0.063
					c0.337-0.024,0.646-0.048,1.016-0.021c0.673,0.025,1.346,0.15,1.982,0.367c0.642,0.209,1.241,0.529,1.789,0.921
					c0.544,0.397,1.028,0.882,1.413,1.439c0.382,0.56,0.659,1.197,0.786,1.872l0.089,0.471l0.26-0.4l0.191-0.295
					c0.066-0.098,0.122-0.203,0.198-0.294l0.234-0.266c0.083-0.085,0.149-0.188,0.245-0.26l0.273-0.231
					c0.093-0.074,0.178-0.162,0.283-0.221l0.306-0.191c0.104-0.062,0.202-0.132,0.316-0.174l0.331-0.146
					c0.111-0.047,0.22-0.104,0.338-0.131l0.35-0.103c0.117-0.03,0.232-0.08,0.354-0.089l0.358-0.059
					c0.12-0.012,0.239-0.063,0.361-0.063l0.732-0.044c0.457,0,0.916,0.167,1.35,0.322c0.44,0.136,0.854,0.39,1.237,0.64
					c0.392,0.238,0.728,0.556,1.027,0.893c0.305,0.338,0.535,0.73,0.724,1.133s0.284,0.846,0.329,1.273l0.018,0.315
					C68.725,30.536,68.714,30.655,68.708,30.77z"/>
			</g>
			<g id="pupilas_12_">
				<path class="st14" d="M52.966,31.152c1.145-0.03,2.027-0.873,1.972-1.882c-0.025-0.435-0.225-0.822-0.529-1.128
					c0.021,0.059,0.036,0.121,0.038,0.186c0.024,0.425-0.347,0.781-0.829,0.795c-0.483,0.013-0.894-0.322-0.917-0.748
					c-0.024-0.402,0.31-0.738,0.755-0.785c-0.219-0.061-0.451-0.1-0.693-0.092c-1.145,0.031-2.028,0.873-1.973,1.883
					C50.847,30.39,51.82,31.182,52.966,31.152z"/>
				<path class="st14" d="M65.991,29.949c-0.098,0.312-0.41,0.543-0.797,0.553c-0.482,0.015-0.896-0.321-0.918-0.746
					c-0.02-0.343,0.22-0.635,0.563-0.745c-0.254-0.087-0.531-0.131-0.818-0.123c-1.146,0.03-2.028,0.874-1.973,1.882
					c0.057,1.01,1.03,1.803,2.176,1.771c1.145-0.029,2.026-0.873,1.973-1.882C66.183,30.406,66.109,30.166,65.991,29.949z"/>
			</g>
		</g>
	</g>
</g>
<g>
	<polygon points="83.91,45.767 79.332,47.888 84.235,49.924 	"/>
	<g>
		<path class="st1" d="M116.711,32.968c-0.762,2.53-3.584,4.376-6.304,4.126c-2.72-0.249-3.681-2.416-2.918-4.944
			c0.762-2.529,2.959-4.464,5.679-4.213C115.887,28.187,117.474,30.44,116.711,32.968z"/>
		<path class="st2" d="M116.711,32.968c-0.762,2.53-3.584,4.376-6.304,4.126c-2.72-0.249-3.681-2.416-2.918-4.944
			c0.762-2.529,2.959-4.464,5.679-4.213C115.887,28.187,117.474,30.44,116.711,32.968z"/>
	</g>
	<g>
		<path d="M125.346,47.846c0-7.917-5.538-14.679-13.348-17.386c4.837,4.434,7.881,10.863,7.881,18.016
			c0,6.111-2.223,11.69-5.882,15.952C120.735,61.329,125.346,55.069,125.346,47.846z"/>
		<path class="st4" d="M111.998,30.459c-2.349-0.814-4.901-1.266-7.573-1.268c5.701,4.424,9.384,11.416,9.384,19.284
			c0,7.126-3.016,13.532-7.816,17.966c2.868-0.191,5.574-0.896,8.003-2.014c3.66-4.262,5.882-9.841,5.882-15.952
			C119.879,41.323,116.835,34.893,111.998,30.459z"/>
		<path d="M86.251,57.107c1.11-2.803,1.727-5.862,1.727-9.07c0-3.299-0.649-6.442-1.82-9.308c-1.699,2.696-2.672,5.804-2.672,9.117
			C83.485,51.218,84.495,54.378,86.251,57.107z"/>
		<path d="M100.834,29.596c5.069,4.441,8.284,10.96,8.284,18.309c0,7.354-3.215,13.905-8.284,18.349
			c1.165,0.178,2.36,0.261,3.582,0.261c0.531,0,1.056-0.031,1.577-0.065c4.8-4.433,7.816-10.716,7.816-17.843
			c0-7.869-3.683-15.161-9.384-19.161c-0.003,0-0.006,0-0.009,0C103.194,29.446,101.999,29.418,100.834,29.596z"/>
		<path d="M95.615,47.842c0,5.363-1.71,10.316-4.601,14.33c1.109,0.824,2.316,1.548,3.603,2.156
			c3.939-4.324,6.352-10.116,6.352-16.486c0-6.365-2.413-12.156-6.352-16.479c-1.287,0.608-2.493,1.331-3.602,2.157
			C93.905,37.532,95.615,42.482,95.615,47.842z"/>
		<path class="st4" d="M91.015,33.52c-1.954,1.453-3.604,3.219-4.857,5.209c1.171,2.866,1.82,6.009,1.82,9.308
			c0,3.208-0.617,6.268-1.727,9.07c1.242,1.932,2.857,3.646,4.763,5.064c2.891-4.014,4.601-8.967,4.601-14.33
			C95.615,42.482,93.905,37.532,91.015,33.52z"/>
		<path class="st4" d="M109.118,47.842c0-7.349-3.215-13.931-8.284-18.373c-2.21,0.34-4.302,0.987-6.217,1.894
			c3.939,4.323,6.352,10.114,6.352,16.479c0,6.37-2.413,12.162-6.352,16.486c1.915,0.906,4.007,1.553,6.217,1.893
			C105.903,61.779,109.118,55.195,109.118,47.842z"/>
	</g>
	<path class="st13" d="M98.963,41.292c0,0,5.36-1.869,9.211-1.401"/>
	<g>
		<g class="st8">
			<path class="st5" d="M108.983,33.352c-1.789-3.438-7.063-5.557-11.778-4.733c-4.716,0.823-5.837,3.809-4.048,7.246
				c1.27,2.44,4.267,4.3,7.158,4.987c1.514-0.246,3.875-0.572,6.19-0.661C109.286,38.762,110.371,36.019,108.983,33.352z"/>
		</g>
		<g>
			<path class="st3" d="M108.983,33.352c-1.789-3.438-7.063-5.557-11.778-4.733c-4.716,0.823-5.837,3.809-4.048,7.246
				c1.27,2.44,4.267,4.3,7.158,4.987c1.514-0.246,3.875-0.572,6.19-0.661C109.286,38.762,110.371,36.019,108.983,33.352z"/>
		</g>
	</g>
	<g>
		<path class="st4" d="M119.76,43.729c0-7.332,5.826-13.28,13.015-13.28c7.191,0,13.018,5.948,13.018,13.28
			c0,7.338-5.827,13.285-13.018,13.285C125.585,57.014,119.76,51.066,119.76,43.729 M134.759,49.445V38.269
			c0-1.243-0.905-2.358-2.127-2.358c-1.216,0-2.116,1.115-2.116,2.358l0.042,10.881c0,1.246,0.836,2.256,2.052,2.256
			c1.222,0,2.149-0.976,2.149-2.225"/>
		<path class="st15" d="M128.57,23.352c0,0-1.1-4.533,2.086-7.109"/>
		<circle class="st15" cx="131.141" cy="15.524" r="1.038"/>
		<path class="st15" d="M138.004,25.879c0,0-0.69-4.143,3.873-5.47"/>
		<circle class="st15" cx="142.924" cy="20.236" r="1.038"/>
		<g>
			<g>
				<path class="st9" d="M139.106,25.897c-2.159-0.158-4.098,0.848-5.036,2.421c-0.37-2.595-2.782-4.714-5.849-4.938
					c-3.477-0.256-6.478,2.018-6.702,5.074c-0.226,3.058,2.412,5.746,5.889,6.001c2.697,0.199,5.107-1.126,6.157-3.158
					c0.427,2.058,2.39,3.703,4.859,3.884c2.914,0.215,5.43-1.69,5.618-4.254S142.02,26.112,139.106,25.897z"/>
				<path class="st12" d="M144.318,30.78c-0.004-0.117-0.004-0.23-0.012-0.351l-0.052-0.378c-0.094-0.488-0.242-0.955-0.481-1.379
					c-0.238-0.421-0.519-0.817-0.866-1.146c-0.344-0.329-0.718-0.626-1.129-0.858c-0.197-0.13-0.419-0.217-0.628-0.322
					c-0.222-0.077-0.425-0.205-0.653-0.263c-0.311-0.104-0.634-0.233-1.312-0.233l-0.082-0.002l-0.732,0.045
					c-0.122-0.002-0.245-0.025-0.368-0.014l-0.369,0.08c-0.125,0.007-0.241,0.034-0.362,0.059l-0.361,0.077
					c-0.122,0.022-0.235,0.07-0.352,0.112l-0.348,0.133c-0.119,0.038-0.224,0.104-0.333,0.162l-0.331,0.175
					c-0.115,0.052-0.21,0.136-0.313,0.206l-0.305,0.22c-0.106,0.068-0.186,0.169-0.28,0.253l-0.272,0.264
					c-0.07,0.072-0.129,0.156-0.19,0.236c-0.114-0.584-0.324-1.153-0.621-1.675c-0.368-0.653-0.869-1.231-1.457-1.701
					c-1.173-0.948-2.676-1.454-4.175-1.481c-0.343-0.016-0.748,0.019-1.12,0.061l-0.554,0.096l-0.541,0.148
					c-0.713,0.225-1.39,0.56-1.99,0.999c-0.599,0.44-1.121,0.985-1.515,1.61c-0.392,0.626-0.667,1.325-0.776,2.052
					c-0.017,0.186-0.05,0.357-0.058,0.553c0,0.179-0.007,0.355-0.001,0.536l0.058,0.554l0.116,0.536
					c0.186,0.709,0.523,1.374,0.97,1.953c0.449,0.577,0.996,1.076,1.605,1.483c0.611,0.405,1.29,0.709,1.999,0.913l0.54,0.129
					c0.18,0.037,0.364,0.057,0.547,0.086c0.386,0.053,0.713,0.064,1.108,0.06c0.749-0.013,1.49-0.157,2.197-0.411
					c0.704-0.257,1.38-0.619,1.964-1.106c0.352-0.295,0.667-0.634,0.947-1.001c0.273,0.66,0.687,1.258,1.194,1.752
					c0.73,0.697,1.642,1.193,2.611,1.438c0.483,0.124,0.984,0.206,1.479,0.201c0.22,0.013,0.492-0.012,0.747-0.028
					c0.253-0.03,0.498-0.064,0.742-0.121c0.489-0.104,0.96-0.285,1.411-0.502c0.44-0.239,0.859-0.521,1.227-0.864
					c0.363-0.347,0.684-0.741,0.926-1.184c0.238-0.442,0.417-0.919,0.495-1.413c0.027-0.121,0.027-0.248,0.042-0.371l0.017-0.186
					C144.325,30.878,144.318,30.845,144.318,30.78z M143.771,30.771c-0.004,0.05-0.005,0.134-0.012,0.156l-0.029,0.159
					c-0.023,0.106-0.03,0.215-0.064,0.318c-0.105,0.418-0.293,0.807-0.514,1.17c-0.228,0.362-0.528,0.672-0.842,0.957
					c-0.652,0.554-1.449,0.929-2.29,1.103c-0.208,0.044-0.426,0.069-0.634,0.091c-0.209,0.008-0.401,0.031-0.645,0.014
					c-0.435-0.006-0.859-0.074-1.275-0.179c-0.416-0.104-0.818-0.261-1.191-0.468c-0.373-0.205-0.726-0.448-1.04-0.735
					c-0.621-0.578-1.081-1.325-1.265-2.144l-0.253-1.126l-0.517,1.021c-0.594,1.176-1.678,2.089-2.929,2.592
					c-0.625,0.256-1.298,0.404-1.975,0.457c-0.674,0.053-1.381,0.01-2.049-0.135c-0.671-0.152-1.322-0.407-1.918-0.759
					c-0.598-0.349-1.138-0.806-1.569-1.351c-0.434-0.542-0.767-1.168-0.956-1.837l-0.108-0.51l-0.048-0.511
					c-0.004-0.176,0.006-0.355,0.008-0.533c0.009-0.161,0.043-0.341,0.067-0.51c0.13-0.68,0.407-1.328,0.814-1.883
					c0.403-0.557,0.916-1.027,1.491-1.396c0.574-0.369,1.21-0.636,1.869-0.8l0.498-0.105l0.504-0.063
					c0.336-0.023,0.646-0.048,1.015-0.021c0.673,0.025,1.346,0.15,1.982,0.367c0.642,0.209,1.242,0.529,1.79,0.92
					c0.543,0.398,1.028,0.882,1.413,1.439c0.382,0.56,0.659,1.197,0.787,1.873l0.088,0.471l0.26-0.4l0.192-0.295
					c0.066-0.098,0.122-0.203,0.198-0.294l0.235-0.267c0.082-0.084,0.149-0.188,0.245-0.259l0.273-0.231
					c0.093-0.074,0.177-0.163,0.283-0.221l0.305-0.192c0.104-0.062,0.203-0.132,0.316-0.173l0.332-0.146
					c0.111-0.047,0.219-0.104,0.338-0.131l0.349-0.104c0.117-0.029,0.232-0.08,0.354-0.088l0.358-0.059
					c0.121-0.012,0.239-0.063,0.361-0.063l0.732-0.045c0.457,0.001,0.916,0.168,1.35,0.322c0.44,0.136,0.854,0.39,1.237,0.641
					c0.392,0.238,0.728,0.556,1.028,0.893c0.304,0.337,0.535,0.73,0.723,1.133c0.189,0.402,0.285,0.846,0.33,1.272l0.017,0.315
					C143.787,30.537,143.776,30.656,143.771,30.771z"/>
			</g>
			<g id="pupilas_13_">
				<path class="st14" d="M128.028,31.153c1.144-0.031,2.027-0.873,1.972-1.883c-0.026-0.434-0.225-0.821-0.529-1.128
					c0.02,0.06,0.036,0.121,0.039,0.187c0.024,0.424-0.348,0.78-0.83,0.794c-0.484,0.014-0.894-0.321-0.917-0.748
					c-0.024-0.401,0.31-0.738,0.755-0.784c-0.219-0.062-0.451-0.1-0.693-0.093c-1.145,0.031-2.028,0.874-1.973,1.883
					C125.909,30.391,126.883,31.182,128.028,31.153z"/>
				<path class="st14" d="M141.053,29.95c-0.097,0.311-0.41,0.543-0.797,0.553c-0.482,0.014-0.895-0.322-0.918-0.746
					c-0.019-0.343,0.22-0.635,0.564-0.745c-0.254-0.088-0.532-0.132-0.818-0.124c-1.146,0.031-2.028,0.874-1.973,1.883
					c0.057,1.01,1.03,1.803,2.175,1.771c1.145-0.029,2.027-0.873,1.973-1.882C141.245,30.406,141.172,30.166,141.053,29.95z"/>
			</g>
		</g>
	</g>
</g>
<g>
	<polygon points="158.972,45.804 154.395,47.925 159.298,49.961 	"/>
	<g>
		<path class="st1" d="M191.402,35.466c-0.568,1.25-3.226,1.997-5.934,1.67c-2.707-0.328-3.816-1.517-3.247-2.767
			c0.568-1.251,2.601-2.089,5.309-1.761S191.972,34.215,191.402,35.466z"/>
		<path class="st16" d="M191.402,35.466c-0.568,1.25-3.226,1.997-5.934,1.67c-2.707-0.328-3.816-1.517-3.247-2.767
			c0.568-1.251,2.601-2.089,5.309-1.761S191.972,34.215,191.402,35.466z"/>
	</g>
	<g>
		<path d="M200.408,47.883c0-7.917-5.538-14.679-13.348-17.386c4.837,4.434,7.881,10.863,7.881,18.015
			c0,6.112-2.223,11.691-5.882,15.953C195.798,61.366,200.408,55.105,200.408,47.883z"/>
		<path class="st4" d="M187.061,30.497c-2.349-0.814-4.901-1.267-7.572-1.268c5.7,4.424,9.384,11.415,9.384,19.283
			c0,7.127-3.017,13.533-7.816,17.966c2.868-0.19,5.574-0.896,8.004-2.013c3.659-4.262,5.882-9.841,5.882-15.953
			C194.941,41.36,191.897,34.93,187.061,30.497z"/>
		<path d="M161.313,57.145c1.109-2.803,1.727-5.862,1.727-9.07c0-3.299-0.649-6.443-1.82-9.308
			c-1.698,2.696-2.672,5.804-2.672,9.117C158.548,51.255,159.557,54.414,161.313,57.145z"/>
		<path d="M175.896,29.491c5.069,4.441,8.284,10.961,8.284,18.31c0,7.354-3.215,13.906-8.284,18.348
			c1.165,0.18,2.36,0.262,3.582,0.262c0.531,0,1.056-0.031,1.577-0.064c4.8-4.434,7.816-10.718,7.816-17.845
			c0-7.869-3.326-14.397-9.384-19.272c-0.004,0,0.003,0,0,0C178.266,29.229,177.062,29.311,175.896,29.491z"/>
		<path d="M170.678,47.879c0,5.363-1.71,10.316-4.602,14.33c1.109,0.824,2.316,1.548,3.603,2.156
			c3.939-4.324,6.353-10.116,6.353-16.486c0-6.366-2.413-12.156-6.353-16.479c-1.286,0.608-2.493,1.331-3.602,2.156
			C168.968,37.569,170.678,42.52,170.678,47.879z"/>
		<path class="st4" d="M166.077,33.556c-1.954,1.454-3.604,3.219-4.857,5.21c1.171,2.865,1.82,6.009,1.82,9.308
			c0,3.208-0.617,6.268-1.727,9.07c1.242,1.931,2.857,3.646,4.763,5.064c2.892-4.014,4.602-8.967,4.602-14.33
			C170.678,42.52,168.968,37.569,166.077,33.556z"/>
		<path class="st4" d="M184.181,47.879c0-7.349-3.215-13.931-8.284-18.373c-2.21,0.34-4.303,0.987-6.218,1.894
			c3.939,4.323,6.353,10.113,6.353,16.479c0,6.37-2.413,12.162-6.353,16.486c1.915,0.906,4.008,1.553,6.218,1.893
			C180.966,61.816,184.181,55.232,184.181,47.879z"/>
	</g>
	<path class="st13" d="M173.539,41.055c0,0,5.579-1.046,9.317-0.006"/>
	<g>
		<g class="st8">
			<path class="st5" d="M184.046,39.09c-1.789-0.824-7.063-1.333-11.778-1.135c-4.716,0.196-5.837,0.913-4.049,1.738
				c1.271,0.584,4.268,1.03,7.158,1.195c1.515-0.059,3.876-0.137,6.19-0.158C184.349,40.388,185.434,39.73,184.046,39.09z"/>
		</g>
		<g>
			<path class="st10" d="M184.046,39.09c-1.789-0.824-7.063-1.333-11.778-1.135c-4.716,0.196-5.837,0.913-4.049,1.738
				c1.271,0.584,4.268,1.03,7.158,1.195c1.515-0.059,3.876-0.137,6.19-0.158C184.349,40.388,185.434,39.73,184.046,39.09z"/>
		</g>
	</g>
	<g>
		<path class="st4" d="M194.822,43.766c0-7.332,5.826-13.28,13.016-13.28c7.19,0,13.018,5.948,13.018,13.28
			c0,7.338-5.827,13.285-13.018,13.285C200.648,57.051,194.822,51.104,194.822,43.766 M210.249,49.479V38.306
			c0-1.243-1.118-2.359-2.34-2.359c-1.217,0-2.224,1.116-2.224,2.359l-0.012,10.881c0,1.246,1.022,2.256,2.239,2.256
			c1.222,0,2.336-0.976,2.336-2.225"/>
		<path class="st15" d="M203.633,23.389c0,0-1.101-4.534,2.085-7.109"/>
		<circle class="st15" cx="206.204" cy="15.562" r="1.038"/>
		<path class="st15" d="M213.066,25.916c0,0-0.69-4.143,3.873-5.47"/>
		<circle class="st15" cx="217.986" cy="20.273" r="1.038"/>
		<g>
			<g>
				<path class="st9" d="M214.169,25.934c-2.16-0.158-4.099,0.848-5.036,2.421c-0.371-2.595-2.783-4.714-5.85-4.938
					c-3.477-0.256-6.478,2.018-6.702,5.074c-0.226,3.058,2.412,5.746,5.889,6.001c2.697,0.199,5.107-1.126,6.158-3.158
					c0.427,2.058,2.389,3.703,4.858,3.884c2.914,0.215,5.43-1.69,5.618-4.254S217.083,26.148,214.169,25.934z"/>
				<path class="st12" d="M219.381,30.817c-0.005-0.117-0.004-0.23-0.013-0.351l-0.051-0.378c-0.095-0.488-0.242-0.955-0.481-1.38
					c-0.238-0.42-0.519-0.816-0.866-1.145c-0.344-0.329-0.718-0.626-1.129-0.858c-0.197-0.13-0.419-0.217-0.628-0.322
					c-0.223-0.077-0.425-0.205-0.652-0.263c-0.312-0.104-0.634-0.233-1.313-0.233l-0.081-0.002l-0.732,0.045
					c-0.122-0.002-0.245-0.025-0.368-0.015l-0.369,0.081c-0.125,0.007-0.241,0.034-0.362,0.059l-0.361,0.077
					c-0.122,0.022-0.235,0.07-0.352,0.112l-0.348,0.133c-0.119,0.038-0.225,0.104-0.334,0.162l-0.33,0.175
					c-0.115,0.052-0.21,0.136-0.313,0.206l-0.306,0.22c-0.106,0.068-0.186,0.169-0.28,0.253l-0.272,0.264
					c-0.07,0.072-0.129,0.155-0.19,0.236c-0.114-0.584-0.323-1.153-0.621-1.675c-0.368-0.653-0.869-1.231-1.456-1.701
					c-1.174-0.948-2.677-1.454-4.176-1.481c-0.343-0.016-0.748,0.019-1.12,0.061l-0.553,0.096l-0.542,0.148
					c-0.713,0.225-1.39,0.56-1.989,0.999s-1.121,0.985-1.515,1.61c-0.393,0.626-0.667,1.325-0.776,2.052
					c-0.017,0.186-0.05,0.357-0.058,0.553c0,0.179-0.008,0.355-0.002,0.536l0.059,0.554l0.116,0.536
					c0.186,0.709,0.523,1.374,0.97,1.953c0.448,0.576,0.995,1.076,1.604,1.483c0.611,0.405,1.291,0.709,2,0.913l0.539,0.129
					c0.18,0.037,0.364,0.057,0.547,0.086c0.386,0.052,0.713,0.064,1.108,0.06c0.749-0.013,1.489-0.157,2.196-0.412
					c0.705-0.256,1.38-0.618,1.965-1.105c0.352-0.295,0.667-0.634,0.946-1.001c0.273,0.66,0.688,1.258,1.194,1.752
					c0.73,0.697,1.642,1.193,2.611,1.438c0.483,0.124,0.984,0.206,1.479,0.201c0.221,0.013,0.492-0.012,0.747-0.028
					c0.253-0.03,0.497-0.065,0.742-0.121c0.489-0.104,0.96-0.285,1.411-0.502c0.44-0.239,0.859-0.521,1.227-0.865
					c0.363-0.346,0.684-0.741,0.926-1.183c0.238-0.442,0.418-0.919,0.494-1.413c0.027-0.121,0.027-0.248,0.042-0.371l0.017-0.186
					C219.388,30.915,219.381,30.882,219.381,30.817z M218.833,30.808c-0.004,0.05-0.005,0.134-0.013,0.155l-0.028,0.16
					c-0.023,0.106-0.03,0.215-0.064,0.317c-0.105,0.419-0.293,0.808-0.514,1.171c-0.229,0.362-0.528,0.671-0.843,0.957
					c-0.652,0.554-1.449,0.928-2.29,1.103c-0.209,0.044-0.427,0.069-0.634,0.091c-0.209,0.008-0.401,0.031-0.645,0.014
					c-0.436-0.007-0.859-0.074-1.275-0.179c-0.416-0.104-0.818-0.261-1.191-0.468c-0.374-0.205-0.727-0.448-1.04-0.735
					c-0.621-0.578-1.081-1.325-1.266-2.145l-0.253-1.125l-0.517,1.021c-0.595,1.176-1.678,2.089-2.929,2.592
					c-0.625,0.256-1.298,0.404-1.975,0.457c-0.674,0.053-1.381,0.01-2.05-0.135c-0.671-0.152-1.321-0.407-1.918-0.759
					c-0.599-0.349-1.138-0.806-1.569-1.351c-0.434-0.542-0.768-1.168-0.956-1.837l-0.107-0.51l-0.048-0.511
					c-0.004-0.176,0.005-0.356,0.008-0.533c0.009-0.161,0.043-0.342,0.066-0.51c0.131-0.68,0.408-1.328,0.814-1.883
					c0.403-0.557,0.916-1.027,1.491-1.396c0.574-0.369,1.21-0.636,1.869-0.801l0.497-0.104l0.505-0.063
					c0.337-0.023,0.646-0.048,1.015-0.021c0.674,0.024,1.347,0.15,1.983,0.367c0.642,0.209,1.241,0.529,1.789,0.92
					c0.543,0.398,1.028,0.882,1.413,1.439c0.382,0.56,0.659,1.197,0.786,1.873l0.089,0.471l0.26-0.4l0.191-0.295
					c0.066-0.098,0.122-0.203,0.197-0.295l0.235-0.266c0.083-0.085,0.149-0.188,0.245-0.259l0.273-0.231
					c0.093-0.075,0.178-0.163,0.283-0.221l0.305-0.192c0.104-0.062,0.203-0.132,0.316-0.173l0.332-0.146
					c0.111-0.047,0.22-0.104,0.338-0.131l0.35-0.104c0.117-0.029,0.231-0.08,0.353-0.088l0.359-0.059
					c0.12-0.012,0.238-0.063,0.361-0.063l0.732-0.045c0.456,0.001,0.916,0.168,1.35,0.322c0.44,0.136,0.854,0.39,1.237,0.64
					c0.392,0.239,0.728,0.556,1.027,0.894c0.305,0.337,0.534,0.73,0.723,1.132c0.189,0.403,0.285,0.847,0.33,1.273l0.017,0.315
					C218.85,30.573,218.839,30.693,218.833,30.808z"/>
			</g>
			<g id="pupilas_14_">
				<path class="st14" d="M203.091,31.19c1.144-0.031,2.027-0.873,1.972-1.883c-0.025-0.435-0.225-0.822-0.529-1.128
					c0.021,0.06,0.036,0.121,0.038,0.187c0.024,0.424-0.348,0.78-0.829,0.794c-0.483,0.014-0.894-0.321-0.918-0.748
					c-0.023-0.401,0.31-0.738,0.755-0.785c-0.219-0.061-0.45-0.099-0.692-0.092c-1.145,0.031-2.028,0.874-1.973,1.883
					C200.972,30.428,201.945,31.219,203.091,31.19z"/>
				<path class="st14" d="M216.115,29.987c-0.097,0.311-0.409,0.543-0.796,0.553c-0.482,0.014-0.896-0.322-0.918-0.746
					c-0.02-0.344,0.22-0.635,0.563-0.745c-0.254-0.088-0.532-0.132-0.818-0.124c-1.146,0.031-2.028,0.874-1.973,1.883
					c0.057,1.01,1.03,1.803,2.176,1.771c1.144-0.029,2.026-0.873,1.973-1.883C216.307,30.443,216.234,30.203,216.115,29.987z"/>
			</g>
		</g>
	</g>
</g>
<g>
	<polygon points="234.035,45.775 229.457,47.896 234.361,49.932 	"/>
	<g>
		<path class="st1" d="M266.465,35.438c-0.568,1.25-3.225,1.997-5.933,1.67c-2.708-0.328-3.817-1.518-3.247-2.768
			c0.568-1.25,2.6-2.088,5.309-1.76C265.301,32.909,267.035,34.188,266.465,35.438z"/>
		<path class="st16" d="M266.465,35.438c-0.568,1.25-3.225,1.997-5.933,1.67c-2.708-0.328-3.817-1.518-3.247-2.768
			c0.568-1.25,2.6-2.088,5.309-1.76C265.301,32.909,267.035,34.188,266.465,35.438z"/>
	</g>
	<g>
		<path d="M275.472,47.854c0-7.917-5.538-14.678-13.349-17.386c4.838,4.435,7.881,10.863,7.881,18.017
			c0,6.111-2.223,11.69-5.881,15.952C270.861,61.338,275.472,55.077,275.472,47.854z"/>
		<path class="st4" d="M262.123,30.467c-2.348-0.813-4.9-1.266-7.572-1.267c5.701,4.424,9.384,11.415,9.384,19.284
			c0,7.126-3.016,13.532-7.815,17.965c2.867-0.191,5.574-0.896,8.004-2.013c3.658-4.262,5.881-9.841,5.881-15.952
			C270.004,41.331,266.961,34.902,262.123,30.467z"/>
		<path d="M236.377,57.116c1.109-2.803,1.727-5.862,1.727-9.071c0-3.299-0.649-6.441-1.82-9.308
			c-1.699,2.697-2.672,5.804-2.672,9.117C233.611,51.227,234.62,54.387,236.377,57.116z"/>
		<path d="M250.96,29.465c5.069,4.442,8.284,11.03,8.284,18.379c0,7.354-3.215,13.94-8.284,18.382
			c1.164,0.18,2.36,0.279,3.581,0.279c0.531,0,1.057-0.022,1.578-0.058c4.8-4.432,7.815-10.851,7.815-17.978
			c0-7.867-3.683-15.294-9.384-19.294c-0.003,0-0.006,0-0.01,0C253.319,29.176,252.124,29.288,250.96,29.465z"/>
		<path d="M245.74,47.851c0,5.362-1.71,10.315-4.601,14.329c1.109,0.825,2.316,1.549,3.603,2.156
			c3.939-4.323,6.352-10.115,6.352-16.485c0-6.366-2.412-12.157-6.352-16.479c-1.286,0.607-2.493,1.331-3.602,2.156
			C244.03,37.541,245.74,42.491,245.74,47.851z"/>
		<path class="st4" d="M241.141,33.528c-1.954,1.453-3.604,3.219-4.857,5.209c1.171,2.867,1.82,6.009,1.82,9.308
			c0,3.209-0.617,6.269-1.727,9.071c1.242,1.931,2.857,3.646,4.763,5.063c2.891-4.014,4.601-8.967,4.601-14.329
			C245.74,42.491,244.03,37.541,241.141,33.528z"/>
		<path class="st4" d="M259.244,47.851c0-7.349-3.215-13.931-8.284-18.373c-2.211,0.34-4.303,0.987-6.218,1.894
			c3.939,4.322,6.352,10.113,6.352,16.479c0,6.37-2.412,12.162-6.352,16.485c1.915,0.907,4.007,1.554,6.218,1.894
			C256.029,61.787,259.244,55.204,259.244,47.851z"/>
	</g>
	<path class="st13" d="M248.637,40.547c0,0,5.469,1.518,9.283,0.801"/>
	<g>
		<g class="st8">
			<path class="st5" d="M259.109,44.482c-1.789,1.52-7.063,2.457-11.778,2.092c-4.717-0.363-5.837-1.684-4.049-3.204
				c1.27-1.079,4.267-1.901,7.158-2.206c1.515,0.109,3.875,0.254,6.19,0.293C259.412,42.09,260.496,43.303,259.109,44.482z"/>
		</g>
		<g>
			<path class="st7" d="M259.109,44.482c-1.789,1.52-7.063,2.457-11.778,2.092c-4.717-0.363-5.837-1.684-4.049-3.204
				c1.27-1.079,4.267-1.901,7.158-2.206c1.515,0.109,3.875,0.254,6.19,0.293C259.412,42.09,260.496,43.303,259.109,44.482z"/>
		</g>
	</g>
	<g>
		<path class="st4" d="M269.886,43.458c0-7.332,5.825-13.28,13.015-13.28c7.191,0,13.018,5.948,13.018,13.28
			c0,7.338-5.826,13.285-13.018,13.285C275.711,56.743,269.886,50.796,269.886,43.458 M285.738,49.176V37.999
			c0-1.243-1.331-2.359-2.553-2.359c-1.217,0-2.33,1.116-2.33,2.359l-0.064,10.881c0,1.245,1.209,2.256,2.426,2.256
			c1.222,0,2.521-0.976,2.521-2.225"/>
		<path class="st15" d="M278.695,23.361c0,0-1.1-4.534,2.086-7.109"/>
		<circle class="st15" cx="281.267" cy="15.533" r="1.038"/>
		<path class="st15" d="M288.129,25.887c0,0-0.689-4.143,3.873-5.469"/>
		<circle class="st15" cx="293.05" cy="20.244" r="1.038"/>
		<g>
			<g>
				<path class="st9" d="M289.232,25.905c-2.16-0.158-4.1,0.848-5.037,2.422c-0.37-2.596-2.782-4.714-5.85-4.938
					c-3.477-0.256-6.477,2.017-6.701,5.074c-0.227,3.058,2.411,5.745,5.889,6.001c2.697,0.199,5.107-1.127,6.157-3.158
					c0.427,2.057,2.39,3.703,4.859,3.884c2.914,0.215,5.43-1.69,5.618-4.255C294.355,28.372,292.146,26.12,289.232,25.905z"/>
				<path class="st12" d="M294.443,30.788c-0.004-0.117-0.004-0.23-0.012-0.35l-0.051-0.379c-0.096-0.487-0.243-0.955-0.482-1.379
					c-0.238-0.42-0.518-0.816-0.865-1.145c-0.344-0.329-0.719-0.627-1.129-0.858c-0.197-0.13-0.42-0.217-0.628-0.322
					c-0.223-0.077-0.425-0.205-0.653-0.263c-0.311-0.105-0.634-0.233-1.313-0.233l-0.081-0.002l-0.732,0.044
					c-0.122-0.001-0.245-0.024-0.368-0.014l-0.369,0.081c-0.125,0.007-0.24,0.034-0.361,0.059l-0.361,0.077
					c-0.123,0.021-0.236,0.07-0.352,0.112l-0.348,0.132c-0.119,0.039-0.225,0.104-0.334,0.163l-0.33,0.175
					c-0.115,0.052-0.21,0.135-0.313,0.205l-0.306,0.221c-0.105,0.068-0.186,0.169-0.279,0.252l-0.273,0.264
					c-0.069,0.073-0.129,0.156-0.189,0.237c-0.114-0.585-0.324-1.153-0.621-1.675c-0.369-0.653-0.869-1.232-1.457-1.701
					c-1.174-0.949-2.676-1.455-4.175-1.482c-0.343-0.015-0.748,0.02-1.12,0.062l-0.553,0.095l-0.542,0.148
					c-0.714,0.226-1.39,0.561-1.989,1s-1.121,0.984-1.516,1.61c-0.392,0.626-0.666,1.325-0.775,2.052
					c-0.018,0.186-0.051,0.357-0.059,0.553c0,0.179-0.007,0.355-0.001,0.536l0.059,0.554l0.115,0.536
					c0.186,0.708,0.524,1.374,0.97,1.952c0.449,0.578,0.996,1.076,1.605,1.484c0.611,0.405,1.291,0.709,1.999,0.912l0.54,0.129
					c0.18,0.037,0.364,0.058,0.547,0.086c0.386,0.053,0.713,0.065,1.107,0.061c0.75-0.014,1.49-0.157,2.197-0.412
					c0.704-0.256,1.38-0.619,1.965-1.105c0.352-0.295,0.666-0.634,0.946-1.002c0.272,0.66,0.687,1.259,1.194,1.752
					c0.73,0.697,1.642,1.193,2.611,1.439c0.482,0.123,0.983,0.205,1.479,0.201c0.221,0.013,0.492-0.012,0.747-0.029
					c0.253-0.029,0.497-0.064,0.741-0.12c0.49-0.104,0.961-0.286,1.412-0.502c0.439-0.239,0.859-0.521,1.227-0.864
					c0.363-0.348,0.684-0.742,0.926-1.184c0.238-0.443,0.417-0.919,0.494-1.414c0.027-0.121,0.027-0.247,0.042-0.371l0.017-0.185
					C294.451,30.886,294.443,30.854,294.443,30.788z M293.896,30.78c-0.004,0.049-0.005,0.133-0.013,0.156l-0.028,0.159
					c-0.023,0.106-0.031,0.214-0.064,0.317c-0.105,0.418-0.293,0.808-0.515,1.171c-0.228,0.362-0.527,0.671-0.842,0.957
					c-0.653,0.554-1.449,0.929-2.29,1.103c-0.209,0.043-0.427,0.069-0.635,0.091c-0.209,0.008-0.4,0.031-0.645,0.014
					c-0.435-0.007-0.859-0.074-1.275-0.179c-0.416-0.104-0.818-0.261-1.191-0.468c-0.373-0.205-0.727-0.448-1.039-0.735
					c-0.621-0.578-1.081-1.325-1.266-2.145l-0.253-1.125l-0.517,1.02c-0.595,1.176-1.678,2.09-2.93,2.592
					c-0.624,0.257-1.297,0.404-1.975,0.457c-0.674,0.053-1.381,0.01-2.049-0.135c-0.672-0.151-1.322-0.406-1.918-0.758
					c-0.599-0.35-1.139-0.806-1.57-1.352c-0.434-0.541-0.767-1.167-0.955-1.836l-0.107-0.51l-0.049-0.512
					c-0.004-0.175,0.006-0.355,0.008-0.533c0.01-0.16,0.044-0.34,0.067-0.509c0.13-0.68,0.407-1.329,0.814-1.883
					c0.403-0.558,0.916-1.028,1.491-1.396c0.574-0.369,1.209-0.637,1.868-0.801l0.498-0.104l0.505-0.063
					c0.336-0.023,0.645-0.048,1.015-0.021c0.673,0.025,1.346,0.15,1.982,0.367c0.642,0.21,1.241,0.529,1.79,0.921
					c0.543,0.397,1.027,0.882,1.412,1.439c0.383,0.56,0.659,1.197,0.787,1.873l0.088,0.471l0.26-0.401l0.191-0.295
					c0.066-0.097,0.123-0.202,0.198-0.293l0.235-0.267c0.082-0.085,0.148-0.188,0.244-0.259l0.273-0.231
					c0.094-0.075,0.178-0.163,0.283-0.221l0.306-0.192c0.104-0.062,0.203-0.132,0.316-0.174l0.332-0.146
					c0.11-0.047,0.219-0.104,0.337-0.132l0.35-0.103c0.117-0.03,0.232-0.08,0.354-0.088l0.359-0.06
					c0.12-0.012,0.238-0.063,0.36-0.063l0.732-0.044c0.457,0.001,0.916,0.167,1.351,0.322c0.439,0.136,0.854,0.39,1.236,0.64
					c0.392,0.239,0.729,0.557,1.028,0.894c0.304,0.337,0.534,0.729,0.723,1.132c0.189,0.403,0.285,0.846,0.329,1.273l0.018,0.315
					C293.913,30.545,293.902,30.665,293.896,30.78z"/>
			</g>
			<g id="pupilas_15_">
				<path class="st14" d="M278.154,30.881c1.144-0.03,2.027-0.873,1.971-1.882c-0.025-0.435-0.225-0.821-0.529-1.128
					c0.021,0.059,0.037,0.121,0.039,0.187c0.023,0.424-0.348,0.78-0.83,0.794c-0.483,0.014-0.894-0.322-0.917-0.748
					c-0.024-0.402,0.31-0.738,0.755-0.785c-0.219-0.061-0.451-0.1-0.693-0.092c-1.145,0.031-2.027,0.873-1.973,1.883
					C276.035,30.12,277.009,30.912,278.154,30.881z"/>
				<path class="st14" d="M291.179,29.678c-0.097,0.312-0.41,0.543-0.796,0.553c-0.482,0.015-0.896-0.321-0.918-0.746
					c-0.02-0.342,0.219-0.634,0.563-0.744c-0.254-0.088-0.531-0.132-0.818-0.124c-1.146,0.03-2.027,0.874-1.973,1.882
					c0.057,1.01,1.031,1.804,2.176,1.772c1.145-0.03,2.027-0.874,1.973-1.882C291.37,30.135,291.297,29.895,291.179,29.678z"/>
			</g>
		</g>
	</g>
</g>
<g>
	<polygon points="309.098,45.767 304.52,47.888 309.422,49.923 	"/>
	<g>
		<path class="st1" d="M341.527,35.428c-0.568,1.251-3.227,1.997-5.934,1.67s-3.816-1.517-3.248-2.767s2.602-2.088,5.309-1.761
			C340.363,32.899,342.096,34.178,341.527,35.428z"/>
		<path class="st16" d="M341.527,35.428c-0.568,1.251-3.227,1.997-5.934,1.67s-3.816-1.517-3.248-2.767s2.602-2.088,5.309-1.761
			C340.363,32.899,342.096,34.178,341.527,35.428z"/>
	</g>
	<g>
		<path d="M350.533,47.845c0-7.917-5.537-14.679-13.348-17.386c4.836,4.434,7.881,10.863,7.881,18.016
			c0,6.112-2.223,11.69-5.883,15.953C345.922,61.329,350.533,55.068,350.533,47.845z"/>
		<path class="st4" d="M337.186,30.458c-2.35-0.814-4.902-1.266-7.572-1.268c5.701,4.424,9.383,11.416,9.383,19.284
			c0,7.126-3.016,13.532-7.816,17.966c2.869-0.191,5.574-0.896,8.004-2.013c3.66-4.263,5.883-9.841,5.883-15.953
			C345.066,41.322,342.021,34.892,337.186,30.458z"/>
		<path d="M311.438,57.106c1.111-2.803,1.727-5.862,1.727-9.07c0-3.299-0.648-6.442-1.82-9.308
			c-1.697,2.696-2.672,5.804-2.672,9.117C308.672,51.217,309.682,54.377,311.438,57.106z"/>
		<path d="M326.021,29.601c5.068,4.441,8.283,10.957,8.283,18.306c0,7.354-3.215,13.903-8.283,18.346
			c1.164,0.18,2.359,0.262,3.582,0.262c0.531,0,1.057-0.031,1.576-0.066c4.801-4.432,7.816-10.711,7.816-17.838
			c0-7.868-3.682-15.154-9.383-19.154c-0.004,0-0.008,0-0.01,0C328.381,29.457,327.186,29.422,326.021,29.601z"/>
		<path d="M320.803,47.841c0,5.363-1.711,10.316-4.602,14.33c1.109,0.824,2.316,1.548,3.604,2.156
			c3.938-4.323,6.352-10.116,6.352-16.486c0-6.365-2.414-12.156-6.352-16.479c-1.287,0.608-2.494,1.331-3.604,2.157
			C319.092,37.531,320.803,42.481,320.803,47.841z"/>
		<path class="st4" d="M316.201,33.519c-1.953,1.453-3.604,3.219-4.857,5.209c1.172,2.866,1.82,6.009,1.82,9.308
			c0,3.208-0.615,6.268-1.727,9.07c1.242,1.932,2.857,3.646,4.764,5.064c2.891-4.014,4.602-8.967,4.602-14.33
			C320.803,42.481,319.092,37.531,316.201,33.519z"/>
		<path class="st4" d="M334.305,47.841c0-7.349-3.215-13.93-8.283-18.373c-2.211,0.341-4.303,0.987-6.217,1.894
			c3.938,4.323,6.352,10.114,6.352,16.479c0,6.37-2.414,12.163-6.352,16.486c1.914,0.906,4.006,1.553,6.217,1.894
			C331.09,61.778,334.305,55.195,334.305,47.841z"/>
	</g>
	<path class="st13" d="M323.711,40.454c0,0,5.439,1.618,9.266,0.972"/>
	<g>
		<g class="st8">
			<path class="st5" d="M334.17,49.743c-1.789,3.935-7.063,6.361-11.777,5.419c-4.717-0.943-5.838-4.361-4.049-8.298
				c1.27-2.792,4.268-4.919,7.158-5.708c1.514,0.284,3.875,0.655,6.189,0.758C334.473,43.548,335.559,46.691,334.17,49.743z"/>
		</g>
		<g>
			<path class="st0" d="M334.17,49.743c-1.789,3.935-7.063,6.361-11.777,5.419c-4.717-0.943-5.838-4.361-4.049-8.298
				c1.27-2.792,4.268-4.919,7.158-5.708c1.514,0.284,3.875,0.655,6.189,0.758C334.473,43.548,335.559,46.691,334.17,49.743z"/>
		</g>
	</g>
	<g>
		<path class="st4" d="M344.947,43.729c0-7.333,5.826-13.281,13.016-13.281s13.018,5.948,13.018,13.281
			c0,7.337-5.828,13.284-13.018,13.284S344.947,51.065,344.947,43.729 M360.227,49.456V38.268c0-1.243-1.045-2.358-2.266-2.358
			c-1.217,0-2.188,1.115-2.188,2.358l0.006,10.882c0,1.245,0.959,2.255,2.176,2.255c1.221,0,2.271-0.976,2.271-2.225"/>
		<path class="st15" d="M353.758,23.351c0,0-1.1-4.533,2.086-7.108"/>
		<circle class="st15" cx="356.328" cy="15.524" r="1.039"/>
		<path class="st15" d="M363.191,25.878c0,0-0.691-4.143,3.873-5.47"/>
		<circle class="st15" cx="368.112" cy="20.235" r="1.038"/>
		<g>
			<g>
				<path class="st9" d="M364.293,25.896c-2.158-0.158-4.098,0.848-5.035,2.421c-0.371-2.595-2.783-4.713-5.85-4.938
					c-3.477-0.256-6.479,2.017-6.703,5.073c-0.225,3.058,2.412,5.746,5.891,6.001c2.697,0.199,5.107-1.126,6.156-3.158
					c0.428,2.058,2.391,3.703,4.859,3.884c2.914,0.215,5.43-1.69,5.617-4.254C369.418,28.362,367.207,26.111,364.293,25.896z"/>
				<path class="st12" d="M369.506,30.779c-0.004-0.117-0.004-0.23-0.012-0.351l-0.053-0.378c-0.094-0.488-0.242-0.955-0.48-1.379
					c-0.238-0.42-0.52-0.816-0.867-1.146c-0.344-0.329-0.717-0.626-1.129-0.858c-0.197-0.129-0.418-0.216-0.627-0.322
					c-0.223-0.077-0.426-0.205-0.652-0.263c-0.313-0.104-0.635-0.232-1.313-0.232l-0.082-0.003l-0.732,0.045
					c-0.121-0.002-0.244-0.025-0.367-0.014l-0.369,0.081c-0.125,0.007-0.242,0.034-0.363,0.058l-0.361,0.077
					c-0.121,0.022-0.234,0.07-0.352,0.113l-0.348,0.132c-0.119,0.038-0.223,0.104-0.332,0.162l-0.332,0.175
					c-0.113,0.052-0.209,0.136-0.313,0.206l-0.305,0.22c-0.107,0.069-0.186,0.169-0.281,0.253l-0.271,0.264
					c-0.07,0.073-0.129,0.156-0.191,0.237c-0.113-0.585-0.322-1.154-0.621-1.676c-0.367-0.652-0.869-1.231-1.455-1.7
					c-1.174-0.949-2.678-1.455-4.176-1.482c-0.344-0.016-0.748,0.019-1.119,0.061l-0.555,0.096l-0.541,0.148
					c-0.713,0.226-1.391,0.561-1.99,1c-0.598,0.439-1.119,0.984-1.514,1.609c-0.393,0.627-0.668,1.326-0.777,2.053
					c-0.016,0.186-0.049,0.357-0.057,0.552c0,0.179-0.008,0.355-0.002,0.536l0.059,0.554l0.115,0.536
					c0.186,0.709,0.523,1.375,0.971,1.953c0.449,0.577,0.996,1.076,1.605,1.483c0.611,0.405,1.289,0.709,1.998,0.913l0.539,0.129
					c0.182,0.037,0.365,0.057,0.547,0.086c0.387,0.053,0.713,0.065,1.109,0.06c0.748-0.013,1.49-0.157,2.197-0.411
					c0.703-0.257,1.379-0.619,1.963-1.106c0.352-0.294,0.668-0.633,0.947-1.001c0.273,0.66,0.688,1.259,1.195,1.752
					c0.729,0.697,1.641,1.193,2.609,1.438c0.484,0.124,0.984,0.206,1.48,0.201c0.219,0.013,0.49-0.012,0.746-0.028
					c0.254-0.03,0.498-0.064,0.742-0.121c0.488-0.104,0.959-0.285,1.41-0.502c0.441-0.238,0.859-0.52,1.227-0.864
					c0.363-0.347,0.684-0.741,0.926-1.183c0.238-0.443,0.418-0.92,0.496-1.414c0.027-0.121,0.027-0.248,0.041-0.371l0.018-0.186
					C369.512,30.877,369.506,30.844,369.506,30.779z M368.957,30.77c-0.004,0.05-0.004,0.134-0.012,0.156l-0.029,0.159
					c-0.021,0.106-0.029,0.215-0.064,0.318c-0.104,0.418-0.293,0.808-0.514,1.17c-0.227,0.362-0.527,0.672-0.842,0.958
					c-0.652,0.554-1.449,0.928-2.291,1.102c-0.207,0.044-0.426,0.07-0.633,0.092c-0.209,0.007-0.402,0.03-0.645,0.013
					c-0.436-0.006-0.859-0.074-1.275-0.179c-0.416-0.104-0.818-0.261-1.191-0.468c-0.373-0.204-0.727-0.448-1.041-0.735
					c-0.619-0.577-1.08-1.325-1.264-2.144l-0.254-1.125l-0.518,1.02c-0.594,1.176-1.678,2.089-2.928,2.592
					c-0.625,0.256-1.299,0.404-1.975,0.457c-0.674,0.053-1.381,0.01-2.049-0.135c-0.672-0.152-1.322-0.407-1.92-0.759
					c-0.598-0.349-1.137-0.805-1.568-1.351c-0.434-0.542-0.768-1.167-0.955-1.837l-0.109-0.51l-0.047-0.511
					c-0.004-0.176,0.006-0.355,0.008-0.533c0.008-0.161,0.043-0.341,0.066-0.51c0.131-0.68,0.408-1.328,0.814-1.883
					c0.402-0.557,0.916-1.027,1.49-1.396c0.574-0.369,1.211-0.636,1.869-0.8l0.498-0.104l0.504-0.064
					c0.338-0.023,0.646-0.048,1.016-0.021c0.674,0.025,1.346,0.15,1.982,0.367c0.643,0.209,1.242,0.529,1.789,0.92
					c0.545,0.398,1.029,0.882,1.414,1.439c0.381,0.56,0.658,1.197,0.785,1.873l0.09,0.471l0.26-0.4l0.191-0.295
					c0.066-0.098,0.121-0.203,0.197-0.294l0.236-0.267c0.082-0.084,0.148-0.187,0.244-0.259l0.273-0.231
					c0.092-0.074,0.178-0.163,0.283-0.221l0.305-0.191c0.104-0.063,0.203-0.133,0.316-0.174l0.332-0.146
					c0.111-0.047,0.219-0.104,0.338-0.131l0.35-0.103c0.117-0.03,0.232-0.08,0.354-0.089l0.357-0.059
					c0.121-0.012,0.24-0.063,0.361-0.063l0.732-0.045c0.457,0.001,0.916,0.168,1.35,0.323c0.441,0.136,0.855,0.39,1.238,0.64
					c0.391,0.238,0.727,0.556,1.027,0.893c0.305,0.338,0.535,0.73,0.723,1.133c0.189,0.402,0.285,0.846,0.33,1.273l0.018,0.315
					C368.975,30.536,368.963,30.655,368.957,30.77z"/>
			</g>
			<g id="pupilas_16_">
				<path class="st14" d="M353.215,31.152c1.145-0.03,2.027-0.873,1.973-1.883c-0.025-0.434-0.225-0.821-0.529-1.127
					c0.02,0.059,0.035,0.12,0.039,0.186c0.023,0.425-0.348,0.781-0.83,0.795c-0.484,0.013-0.895-0.322-0.918-0.748
					c-0.023-0.402,0.311-0.738,0.756-0.785c-0.219-0.062-0.451-0.1-0.693-0.092c-1.145,0.03-2.029,0.873-1.973,1.883
					S352.07,31.181,353.215,31.152z"/>
				<path class="st14" d="M366.24,29.949c-0.098,0.312-0.41,0.543-0.797,0.553c-0.482,0.014-0.895-0.322-0.918-0.746
					c-0.02-0.343,0.221-0.635,0.564-0.745c-0.254-0.087-0.531-0.132-0.818-0.124c-1.146,0.031-2.029,0.874-1.973,1.883
					c0.057,1.01,1.029,1.803,2.176,1.771c1.145-0.029,2.027-0.873,1.973-1.882C366.432,30.405,366.359,30.165,366.24,29.949z"/>
			</g>
		</g>
	</g>
</g>
<g>
	<polygon points="384.16,45.767 379.582,47.888 384.484,49.924 	"/>
	<g>
		<path class="st1" d="M416.59,35.429c-0.568,1.25-3.225,1.998-5.934,1.67c-2.707-0.327-3.816-1.517-3.248-2.767
			c0.57-1.25,2.602-2.089,5.311-1.761C415.426,32.899,417.16,34.179,416.59,35.429z"/>
		<path class="st16" d="M416.59,35.429c-0.568,1.25-3.225,1.998-5.934,1.67c-2.707-0.327-3.816-1.517-3.248-2.767
			c0.57-1.25,2.602-2.089,5.311-1.761C415.426,32.899,417.16,34.179,416.59,35.429z"/>
	</g>
	<g>
		<path d="M425.596,47.846c0-7.918-5.537-14.679-13.348-17.387c4.836,4.434,7.881,10.863,7.881,18.017
			c0,6.112-2.223,11.691-5.883,15.953C420.986,61.329,425.596,55.069,425.596,47.846z"/>
		<path class="st4" d="M412.248,30.459c-2.35-0.813-4.9-1.266-7.572-1.267c5.701,4.424,9.383,11.415,9.383,19.283
			c0,7.127-3.016,13.533-7.814,17.966c2.867-0.191,5.572-0.896,8.002-2.013c3.66-4.262,5.883-9.841,5.883-15.953
			C420.129,41.322,417.084,34.893,412.248,30.459z"/>
		<path d="M386.502,57.108c1.109-2.803,1.727-5.863,1.727-9.071c0-3.299-0.65-6.442-1.82-9.309
			c-1.699,2.696-2.674,5.805-2.674,9.117C383.734,51.218,384.744,54.378,386.502,57.108z"/>
		<path d="M401.084,29.598c5.07,4.442,8.285,10.959,8.285,18.309c0,7.354-3.215,13.905-8.285,18.347
			c1.164,0.18,2.359,0.262,3.582,0.262c0.531,0,1.057-0.031,1.578-0.065c4.799-4.433,7.814-10.715,7.814-17.841
			c0-7.869-3.682-15.16-9.383-19.16c-0.004,0-0.006,0-0.01,0C403.443,29.448,402.248,29.419,401.084,29.598z"/>
		<path d="M395.865,47.843c0,5.362-1.711,10.315-4.602,14.329c1.109,0.825,2.316,1.548,3.604,2.156
			c3.939-4.323,6.352-10.116,6.352-16.485c0-6.366-2.412-12.157-6.352-16.48c-1.287,0.608-2.494,1.332-3.602,2.157
			C394.154,37.532,395.865,42.483,395.865,47.843z"/>
		<path class="st4" d="M391.266,33.52c-1.955,1.453-3.604,3.219-4.857,5.209c1.17,2.866,1.82,6.01,1.82,9.309
			c0,3.208-0.617,6.269-1.727,9.071c1.24,1.931,2.857,3.646,4.762,5.063c2.891-4.014,4.602-8.967,4.602-14.329
			C395.865,42.483,394.154,37.532,391.266,33.52z"/>
		<path class="st4" d="M409.369,47.843c0-7.35-3.215-13.932-8.285-18.373c-2.211,0.34-4.303,0.986-6.217,1.893
			c3.939,4.323,6.352,10.114,6.352,16.48c0,6.369-2.412,12.162-6.352,16.485c1.914,0.907,4.006,1.554,6.217,1.894
			C406.154,61.779,409.369,55.196,409.369,47.843z"/>
	</g>
	<path class="st13" d="M398.842,40.048c0,0,5.277,2.092,9.145,1.783"/>
	<g>
		<path class="st4" d="M420.01,43.729c0-7.332,5.826-13.281,13.016-13.281c7.191,0,13.018,5.949,13.018,13.281
			c0,7.338-5.826,13.285-13.018,13.285C425.836,57.015,420.01,51.067,420.01,43.729 M435.717,49.448v-11.18
			c0-1.242-1.258-2.358-2.48-2.358c-1.217,0-2.293,1.116-2.293,2.358l-0.047,10.883c0,1.245,1.145,2.256,2.361,2.256
			c1.223,0,2.459-0.977,2.459-2.225"/>
		<path class="st15" d="M428.82,23.353c0,0-1.1-4.534,2.086-7.109"/>
		<circle class="st15" cx="431.392" cy="15.524" r="1.038"/>
		<path class="st15" d="M438.254,25.879c0,0-0.689-4.143,3.873-5.47"/>
		<circle class="st15" cx="443.175" cy="20.235" r="1.038"/>
		<g>
			<g>
				<path class="st9" d="M439.355,25.896c-2.158-0.158-4.098,0.848-5.035,2.421c-0.371-2.595-2.783-4.713-5.85-4.938
					c-3.477-0.256-6.479,2.017-6.703,5.074c-0.225,3.057,2.412,5.745,5.891,6c2.697,0.199,5.107-1.126,6.156-3.158
					c0.428,2.058,2.391,3.703,4.859,3.885c2.914,0.215,5.43-1.691,5.619-4.255C444.48,28.362,442.27,26.111,439.355,25.896z"/>
				<path class="st12" d="M444.568,30.779c-0.004-0.117-0.004-0.23-0.012-0.351l-0.053-0.378c-0.094-0.487-0.242-0.955-0.48-1.379
					c-0.238-0.421-0.52-0.817-0.865-1.146s-0.719-0.626-1.129-0.857c-0.197-0.131-0.42-0.217-0.629-0.322
					c-0.223-0.078-0.424-0.205-0.652-0.264c-0.311-0.104-0.635-0.232-1.313-0.232l-0.082-0.002l-0.732,0.044
					c-0.121-0.001-0.244-0.024-0.367-0.014l-0.369,0.081c-0.125,0.007-0.24,0.034-0.363,0.059l-0.359,0.076
					c-0.123,0.022-0.236,0.07-0.352,0.113l-0.348,0.132c-0.119,0.038-0.225,0.104-0.334,0.163l-0.332,0.174
					c-0.113,0.053-0.209,0.136-0.313,0.206l-0.305,0.22c-0.105,0.069-0.186,0.169-0.279,0.253l-0.273,0.264
					c-0.07,0.073-0.129,0.156-0.189,0.237c-0.115-0.585-0.324-1.154-0.621-1.676c-0.369-0.652-0.869-1.231-1.457-1.701
					c-1.174-0.948-2.676-1.454-4.176-1.481c-0.344-0.015-0.748,0.019-1.119,0.062l-0.555,0.095l-0.541,0.148
					c-0.713,0.226-1.389,0.56-1.99,1c-0.598,0.439-1.119,0.984-1.514,1.61c-0.393,0.625-0.666,1.324-0.775,2.051
					c-0.018,0.186-0.051,0.358-0.059,0.553c0,0.18-0.008,0.355-0.002,0.537l0.059,0.553l0.115,0.537
					c0.186,0.708,0.523,1.373,0.971,1.952c0.449,0.577,0.996,1.076,1.605,1.483c0.611,0.406,1.289,0.709,1.998,0.913l0.539,0.129
					c0.182,0.037,0.365,0.058,0.549,0.086c0.385,0.053,0.711,0.065,1.107,0.06c0.75-0.013,1.49-0.156,2.197-0.411
					c0.703-0.257,1.379-0.619,1.965-1.106c0.35-0.295,0.666-0.633,0.945-1.001c0.273,0.66,0.688,1.259,1.195,1.752
					c0.73,0.697,1.641,1.193,2.611,1.438c0.482,0.124,0.982,0.206,1.479,0.201c0.221,0.014,0.492-0.012,0.746-0.028
					c0.254-0.03,0.498-0.064,0.742-0.12c0.49-0.105,0.959-0.286,1.41-0.502c0.441-0.24,0.861-0.521,1.229-0.865
					c0.363-0.347,0.684-0.741,0.926-1.184c0.238-0.442,0.416-0.918,0.494-1.413c0.027-0.121,0.027-0.247,0.041-0.371l0.018-0.185
					C444.574,30.878,444.568,30.845,444.568,30.779z M444.021,30.771c-0.004,0.05-0.006,0.134-0.014,0.156l-0.029,0.16
					c-0.021,0.105-0.029,0.214-0.063,0.317c-0.105,0.418-0.293,0.808-0.516,1.171c-0.227,0.361-0.527,0.671-0.842,0.957
					c-0.652,0.553-1.449,0.928-2.291,1.102c-0.207,0.044-0.426,0.07-0.633,0.092c-0.209,0.008-0.4,0.031-0.645,0.014
					c-0.436-0.007-0.859-0.074-1.275-0.18c-0.416-0.104-0.818-0.26-1.191-0.467c-0.373-0.205-0.727-0.449-1.041-0.736
					c-0.619-0.578-1.08-1.324-1.264-2.144l-0.254-1.126l-0.516,1.021c-0.596,1.176-1.678,2.089-2.93,2.592
					c-0.625,0.257-1.299,0.404-1.975,0.457c-0.674,0.053-1.381,0.01-2.049-0.135c-0.672-0.151-1.322-0.407-1.918-0.759
					c-0.6-0.349-1.139-0.805-1.57-1.351c-0.434-0.542-0.768-1.167-0.955-1.837l-0.109-0.51l-0.047-0.511
					c-0.004-0.175,0.006-0.355,0.008-0.533c0.01-0.161,0.043-0.341,0.066-0.509c0.131-0.68,0.408-1.329,0.814-1.883
					c0.404-0.558,0.916-1.028,1.492-1.396c0.574-0.369,1.209-0.636,1.867-0.8l0.498-0.104l0.506-0.064
					c0.336-0.023,0.645-0.047,1.014-0.021c0.674,0.025,1.346,0.15,1.982,0.367c0.643,0.209,1.242,0.529,1.791,0.921
					c0.543,0.397,1.027,0.881,1.412,1.439c0.383,0.559,0.658,1.197,0.785,1.873l0.09,0.471l0.26-0.401l0.191-0.295
					c0.066-0.097,0.123-0.202,0.197-0.294l0.236-0.266c0.082-0.085,0.148-0.188,0.244-0.26l0.273-0.23
					c0.094-0.075,0.178-0.164,0.283-0.221l0.305-0.193c0.104-0.061,0.203-0.131,0.316-0.173l0.332-0.146
					c0.111-0.047,0.219-0.105,0.338-0.132l0.35-0.103c0.117-0.03,0.232-0.08,0.354-0.088l0.357-0.06
					c0.121-0.012,0.24-0.063,0.361-0.063l0.732-0.044c0.457,0,0.916,0.167,1.352,0.322c0.439,0.135,0.854,0.389,1.236,0.64
					c0.391,0.239,0.729,0.556,1.027,0.894c0.305,0.336,0.535,0.729,0.723,1.132c0.189,0.403,0.285,0.846,0.33,1.273l0.018,0.315
					C444.037,30.536,444.027,30.655,444.021,30.771z"/>
			</g>
			<g id="pupilas_17_">
				<path class="st14" d="M428.277,31.152c1.145-0.03,2.029-0.873,1.973-1.882c-0.025-0.435-0.225-0.822-0.529-1.129
					c0.02,0.06,0.035,0.121,0.039,0.188c0.023,0.424-0.348,0.78-0.83,0.793c-0.484,0.014-0.895-0.321-0.918-0.748
					c-0.023-0.401,0.311-0.738,0.756-0.784c-0.219-0.062-0.451-0.1-0.693-0.093c-1.145,0.031-2.027,0.874-1.973,1.883
					C426.16,30.391,427.133,31.183,428.277,31.152z"/>
				<path class="st14" d="M441.303,29.949c-0.096,0.312-0.41,0.543-0.797,0.553c-0.48,0.015-0.895-0.321-0.918-0.746
					c-0.018-0.343,0.221-0.634,0.564-0.745c-0.254-0.088-0.531-0.131-0.818-0.123c-1.146,0.03-2.027,0.873-1.973,1.882
					c0.057,1.01,1.031,1.804,2.176,1.772c1.145-0.03,2.027-0.874,1.973-1.883C441.494,30.405,441.422,30.165,441.303,29.949z"/>
			</g>
		</g>
	</g>
	<g>
		<g class="st8">
			<path class="st5" d="M409.232,53.581c-1.789,5.936-7.063,9.597-11.777,8.175c-4.717-1.421-5.838-6.577-4.049-12.515
				c1.27-4.213,4.266-7.424,7.158-8.612c1.514,0.425,3.875,0.988,6.189,1.143C409.535,44.239,410.621,48.976,409.232,53.581z"/>
		</g>
		<g>
			<path class="st11" d="M409.232,53.581c-1.789,5.936-7.063,9.597-11.777,8.175c-4.717-1.421-5.838-6.577-4.049-12.515
				c1.27-4.213,4.266-7.424,7.158-8.612c1.514,0.425,3.875,0.988,6.189,1.143C409.535,44.239,410.621,48.976,409.232,53.581z"/>
		</g>
	</g>
</g>
</svg>
